<?xml version="1.0" encoding="iso-8859-1"?>
<!-- Uploaded to: SVG Repo, www.svgrepo.com, Generator: SVG Repo Mixer Tools -->
<svg fill="#000000" height="800px" width="800px" version="1.1" id="Layer_1" xmlns="http://www.w3.org/2000/svg" xmlns:xlink="http://www.w3.org/1999/xlink" 
	 viewBox="0 0 512.002 512.002" xml:space="preserve">
<g>
	<g>
		<path d="M432.455,138.365c-46.17,0-92.333,34.789-120.298,60.675c-9.525-9.392-21.395-16.398-34.651-20.091
			c10.715-23.274,31.144-41.373,52.016-55.29c44.114-29.41,39.442-79.267,0-102.933C305.956,6.584,277.855,0,250.549,0
			c-57.877,0-112.186,29.59-112.186,79.546c0,46.171,34.789,92.334,60.675,120.298c-9.392,9.525-16.398,21.395-20.091,34.651
			c-23.274-10.715-41.374-31.146-55.29-52.018c-14.294-21.443-33.418-31.358-52.019-31.358c-19.667,0-38.75,11.09-50.912,31.358
			C-23.387,256,6.023,373.637,79.546,373.637c46.17,0,92.333-34.789,120.298-60.675c9.525,9.392,21.395,16.398,34.651,20.091
			c-10.715,23.274-31.144,41.373-52.016,55.29c-44.114,29.41-39.442,79.267,0,102.933c23.568,14.142,51.667,20.726,78.974,20.726
			c57.877,0,112.186-29.59,112.186-79.546c0-46.171-34.789-92.334-60.675-120.298c9.392-9.525,16.398-21.395,20.091-34.65
			c23.274,10.715,41.374,31.144,55.29,52.016c14.294,21.442,33.418,31.358,52.019,31.358c19.667,0,38.75-11.09,50.912-31.358
			C535.388,256,505.978,138.365,432.455,138.365z M149.386,293.05c-26.587,21.014-51.39,32.587-69.842,32.587
			c-2.795,0-11.304,0-20.298-15.883c-14.059-24.832-16.915-69.989,2.638-102.579c3.566-5.946,7.483-8.054,9.752-8.054
			c2.504,0,7.17,2.616,12.082,9.984c15.01,22.512,30.891,39.872,48.554,53.069c10.245,7.656,20.922,13.758,31.978,18.291
			C159.737,284.541,154.748,288.811,149.386,293.05z M186.364,79.544c0-2.742,0-10.034,12.702-18.36
			C211.66,52.928,230.905,48,250.548,48c20.078,0,39.355,4.931,54.277,13.885c5.859,3.517,8.002,7.397,8.054,9.651
			c0.061,2.51-2.518,7.21-9.982,12.184c-27.03,18.022-56.493,44.563-71.373,80.53C209.613,139.747,186.364,106.142,186.364,79.544z
			 M224.001,256c0-17.643,14.355-32,32-32s32,14.357,32,32s-14.355,32-32,32S224.001,273.643,224.001,256z M325.637,432.454
			c0,2.746,0,10.037-12.704,18.362C300.34,459.072,281.093,464,261.452,464c-20.077,0-39.354-4.931-54.278-13.886
			c-5.858-3.514-8-7.395-8.053-9.65c-0.061-2.51,2.518-7.21,9.982-12.186c38.986-25.99,60.443-54.006,71.339-80.554
			c4.083,4.522,8.362,9.518,12.606,14.888C314.063,389.2,325.637,414.003,325.637,432.454z M450.116,304.827
			c-3.568,5.944-7.483,8.054-9.754,8.054c-2.504,0-7.17-2.616-12.082-9.984c-15.01-22.512-30.891-39.872-48.554-53.069
			c-10.243-7.654-20.923-13.758-31.979-18.29c4.515-4.078,9.504-8.349,14.866-12.587c26.587-21.014,51.39-32.587,69.842-32.587
			c2.795,0,11.306,0,20.299,15.883C466.813,227.08,469.669,272.237,450.116,304.827z"/>
	</g>
</g>
</svg>